<svg width="255" height="264" viewBox="0 0 255 264" fill="none" xmlns="http://www.w3.org/2000/svg">
<path d="M155.53 175.099C160.206 170.558 169.706 175.099 173.959 177.716C177.701 180.019 179.987 183.619 180.939 187.531C182.792 195.153 185.446 197.964 188.141 200.65C190.837 203.336 196.642 203.344 199.15 198.576C203.432 190.436 194.038 183.02 178.876 171.465C163.714 159.91 173.097 158.442 186.263 161.771C199.429 165.101 194.774 169.215 209.016 179.11C223.257 189.006 233.796 183.63 235.864 171.798C237.931 159.966 233.972 160.779 222.405 161.541C210.838 162.303 204.932 155.887 187.1 148.044C169.268 140.201 185.036 130.108 198.089 130.478C211.141 130.848 222.243 134.478 222.138 121.089C222.002 103.989 203.108 119.062 188.419 121.276C173.73 123.489 173.647 113.85 181.958 102.944C190.268 92.0391 204.29 97.9361 224.807 90.5874C245.325 83.2388 250.352 65.0432 241.917 58.6147C233.481 52.1863 227.328 58.0319 214.401 74.9955C201.473 91.9591 196.27 84.1632 185.162 89.1054C174.053 94.0476 162.634 78.6188 179.927 71.7085C183.617 70.2339 196.769 68.0845 192.482 49.4944C188.195 30.9043 176.538 61.4642 166.299 68.9848C156.061 76.5053 152.031 65.7726 158.946 48.0577C165.86 30.3427 168.146 23.4652 165.16 10.6553C162.174 -2.15456 150.838 -4.09024 150.788 10.2376C150.739 24.5654 147.154 34.2832 149.216 48.3049C151.279 62.3265 149.967 65.1574 134.904 67.086C119.841 69.0146 129.813 48.3049 126.347 33.5403C121.017 10.8373 115.373 -0.65824 105.236 4.72307C93.6604 10.8677 100.447 22.2298 105.236 33.5403C110.024 44.8508 115.373 44.876 117.546 53.8584C121.371 69.6648 118.529 71.8456 115.373 79.9752C112.217 88.1047 99.7593 71.7085 98.2266 56.9759C97.0344 45.5155 84.8705 38.8028 79.1899 43.0015C72.4517 47.9817 78.8396 61.7506 81.8052 65.0771C87.7169 71.7085 97.5162 68.2019 93.4202 92.8535C89.3242 117.505 61.7345 72.618 58.793 58.8841C55.8516 45.1502 35.1331 24.8153 24.8266 34.6838C15.0929 44.0037 35.0023 75.4221 46.6575 85.2618C58.3127 95.1016 67.5318 91.4013 75.113 118.846C82.6942 146.291 48.6003 110.126 24.8269 98.5944C1.05359 87.0625 -2.38495 96.4784 1.21272 109.351C4.81039 122.224 34.2448 124.252 40.5887 125.828C59.3118 130.478 59.5146 135.326 70.0896 143.385C76.8846 148.563 72.8329 155.738 59.3118 153.54C45.7907 151.341 41.5743 150.042 40.5887 154.843C38.8968 163.085 43.4998 166.592 47.9181 164.502C57.7517 159.851 60.2745 162.247 66.5455 174.624C72.8164 187.002 48.2011 181.414 41.2728 181.199C34.3445 180.984 22.9295 177.351 20.1659 190.948C17.4023 204.546 43.2551 195.88 50.3062 190.616C57.3572 185.352 69.5356 183.995 69.9313 195.44C70.327 206.886 64.0857 201.117 46.6575 204.045C29.2293 206.973 27.3507 220.739 31.974 227.301C36.5974 233.864 49.9195 240.977 63.7477 224.161C77.5759 207.345 88.7321 202.676 95.0659 196.359C101.4 190.042 112.906 192.225 101.581 208.416C90.3301 224.5 95.889 226.399 98.3264 227.231L98.3743 227.247C100.785 228.072 107.775 230.865 108.631 213.788C109.488 196.711 116.584 196.041 120.597 198.086C124.611 200.131 130.287 205.977 129.813 215.24C129.339 224.504 129.002 236.911 135.044 247.594C141.087 258.277 158.422 267.436 161.688 261.82C164.955 256.204 164.986 252.175 161.4 246.91C157.814 241.645 146.659 235.676 139.747 222.811C132.835 209.945 136.606 201.674 142.512 198.576C148.419 195.478 150.737 208.39 157.146 213.274C163.555 218.159 168.149 218.113 175.199 223.485C182.249 228.858 177.017 231.34 184.647 234.622C192.277 237.904 196.26 229.156 190.917 228.332C177.59 226.275 176.35 224.524 171.873 213.788C170.043 209.402 165.037 203.584 159.284 197.174C153.531 190.764 149.684 180.776 155.53 175.099Z" fill="#A95FF7"/>
<path d="M240.698 114.417C234.707 116.827 234.461 120.214 242.4 125.173C246.159 127.521 250.603 123.93 253.83 119.695C257.864 114.402 246.688 112.006 240.698 114.417Z" fill="#A95FF7"/>
<path d="M25.6811 162.081C29.9298 165.319 33.6746 160.097 35.0043 155.806C36.9085 151.073 33.854 151.824 31.706 148.2C28.6502 143.043 25.6658 146.96 22.6842 150.872C19.7026 154.785 21.3436 158.776 25.6811 162.081Z" fill="#A95FF7"/>
<path d="M205.692 23.9879C204.936 30.3152 210.739 28.8791 213.736 27.3702C214.758 26.0288 216.481 22.6209 215.192 19.7209C213.58 16.0959 206.638 16.0787 205.692 23.9879Z" fill="#A95FF7"/>
<path d="M94.6844 253.716C92.0188 257.421 80.4396 252.966 78.7292 248.668C77.3253 245.14 81.1547 234.066 88.9097 235.309C95.7833 236.41 104.745 235.636 104.745 243.605C104.745 248.668 100.087 246.206 94.6844 253.716Z" fill="#A95FF7"/>
</svg>
