<svg width="208" height="190" viewBox="0 0 208 190" fill="none" xmlns="http://www.w3.org/2000/svg">
<path d="M87.4597 145.397C92.3877 146.136 92.7984 149.606 92.3877 151.249C93.289 154.123 94.9762 160.634 94.5149 163.677C93.9381 167.481 90.4779 167.522 90.0934 170.405C89.7089 173.289 92.3877 176.749 99.3208 175.581C106.254 174.413 103.545 165.822 103.545 151.249C103.545 136.676 108.786 141.701 112.862 151.249C116.938 160.797 112.28 159.873 112.862 173.117C113.444 186.361 121.597 190.278 129.749 186.053C137.901 181.827 135.572 179.797 129.749 173.117C123.926 166.437 125.09 159.873 121.597 145.397C118.103 130.921 131.546 135.831 137.369 143.939C143.192 152.047 146.129 160.479 154.221 154.211C164.555 146.205 146.635 141.701 138.483 133.795C130.331 125.89 136.154 121.373 146.635 121.373C157.117 121.373 160.028 132.631 174.003 141.701C187.979 150.771 201.372 145.397 201.372 137.289C201.372 129.181 194.966 128.149 178.662 128.149C162.358 128.149 164.687 121.373 156.535 116.909C148.382 112.445 152.472 98.3523 164.687 105.665C167.293 107.225 174.694 114.226 184.011 103.006C193.328 91.785 169.345 98.8575 160.028 96.1169C150.712 93.3763 155.37 85.9529 169.345 81.9489C183.32 77.9449 188.561 76.1478 194.966 68.3969C201.372 60.6459 197.295 52.8559 188.561 59.4649C179.826 66.0738 172.257 68.3969 164.687 76.1478C157.117 83.8988 154.788 84.4129 146.635 76.1478C138.483 67.8828 151.294 68.3969 160.028 52.8559C168.763 37.3149 165.851 34.2224 160.028 26.0702C154.205 17.918 151.294 26.0702 146.635 34.2224C141.977 42.3745 146.635 47.0329 146.635 59.4649C146.635 71.8968 136.154 68.3969 129.749 70.2449C123.344 72.0929 123.926 59.4649 129.749 52.8559C135.572 46.2469 136.154 34.2224 129.749 34.2224C123.344 34.2224 122.761 34.2224 116.356 40.6276C109.951 47.0329 125.673 59.4649 108.786 68.3969C91.8995 77.3289 109.368 34.2224 116.356 26.0702C123.344 17.918 123.926 10.9304 116.356 3.94284C108.786 -3.04474 104.128 14.4242 103.545 26.0702C102.963 37.7162 100.634 46.4506 87.4597 63.7769C74.2855 81.1031 78.8357 34.2224 74.8318 14.4242C70.8279 -5.37393 60.3553 -0.715546 54.1953 7.43663C48.0354 15.5888 49.5753 16.1711 62.8196 34.2224C76.0638 52.2736 70.2117 61.9289 70.2117 72.0929C70.2117 78.6238 63.9716 79.4849 59.0435 70.2449C54.1154 61.0049 52.9515 57.8394 49.5753 59.4649C43.7805 62.2548 43.7805 66.6789 47.0986 68.3969C54.4834 72.2206 54.1953 74.8649 49.5753 84.4129C44.9552 93.9609 36.9472 76.4049 33.8674 72.0929C30.7876 67.7809 27.7074 59.1569 18.1595 63.7769C8.61157 68.3969 25.8594 80.1009 32.3273 81.9489C38.7952 83.7969 45.2633 90.5729 38.4874 96.1169C31.7116 101.661 32.3273 95.1929 22.4714 85.9529C12.6156 76.7129 3.37546 81.9489 1.52746 87.8009C-0.320537 93.6529 1.5275 105.049 18.1595 105.665C34.7915 106.281 42.7995 110.901 49.5753 111.825C56.3511 112.749 60.3553 120.757 45.2633 121.373C30.2704 121.985 31.6918 126.244 32.3151 128.112L32.3273 128.149C32.9433 129.997 34.4833 135.541 45.2633 128.149C56.0433 120.757 59.7393 124.761 60.3553 128.149C60.9713 131.537 60.0473 137.697 54.1953 141.701C48.3434 145.705 40.6432 151.249 36.9472 159.873C33.2513 168.497 35.7152 183.281 40.6432 182.665C45.5712 182.049 48.0353 180.201 49.5753 175.581C51.1153 170.961 49.5753 161.413 54.1953 151.249C58.8153 141.085 65.5913 139.545 70.2117 141.701C74.8321 143.857 68.0553 151.249 68.0553 157.409C68.0553 163.569 70.2117 166.341 70.2117 173.117C70.2117 179.893 61.2796 179.893 62.8196 186.053C64.3596 192.213 72.0597 189.749 70.2117 186.053C68.3637 182.357 70.2118 173.425 74.8318 168.805C79.4518 164.185 77.6037 157.717 78.8357 151.249C80.0677 144.781 81.2997 144.473 87.4597 145.397Z" fill="#26C5FF"/>
<path d="M13.9182 131.27C9.67684 128.745 7.50329 130.164 8.1669 137.289C8.48106 140.662 12.7237 141.701 16.7938 141.701C21.8815 141.701 18.1595 133.795 13.9182 131.27Z" fill="#26C5FF"/>
<path d="M32.3273 53.7423C32.3273 57.8258 37.2374 57.6833 40.4625 56.5036C44.2229 55.4681 42.3509 53.9589 43.5593 50.9735C45.2785 46.7263 41.5145 46.7263 37.7541 46.7263C33.9936 46.7263 32.3273 49.5734 32.3273 53.7423Z" fill="#26C5FF"/>
<path d="M199.701 99.2067C195.503 101.679 199.066 104.542 201.372 105.665C202.661 105.665 205.531 105.133 206.697 103.006C208.154 100.346 204.948 96.1169 199.701 99.2067Z" fill="#26C5FF"/>
<path d="M158.871 167.508C158.372 163.495 162.029 165.089 158.871 158.393C167.486 155.952 168.588 157.118 171.711 158.393C176.638 160.405 177.97 167.241 174.003 171.865C170.993 175.375 160.028 176.817 158.871 167.508Z" fill="#26C5FF"/>
</svg>
