<svg width="75" height="68" viewBox="0 0 75 68" fill="none" xmlns="http://www.w3.org/2000/svg">
<path d="M42.9785 50.617C41.2718 50.8484 40.6663 53.5638 40.5166 54.8748C40.3849 56.0282 40.7604 57.0905 41.4185 57.9264C42.7005 59.5549 42.8519 60.565 42.9707 61.5634C43.0895 62.5618 42.1442 63.7698 40.7441 63.5135C38.3538 63.0759 38.3441 59.9137 38.4152 54.8773C38.4863 49.8409 36.6506 51.552 35.1954 54.8318C33.7401 58.1116 35.3545 57.8151 35.0887 62.3894C34.8228 66.9636 31.9863 68.2777 29.1896 66.7776C26.3928 65.2775 27.2077 64.5872 29.2527 62.307C31.2977 60.0268 30.9272 57.7526 32.2053 52.7668C33.4834 47.781 28.8137 49.4124 26.7617 52.186C24.7098 54.9596 23.6534 57.8594 20.8875 55.6537C17.355 52.8366 23.57 51.3673 26.426 48.675C29.2819 45.9826 27.2915 44.3932 23.6692 44.3421C20.0469 44.2909 18.9858 48.1674 14.1117 51.2338C9.23773 54.3002 4.63542 52.3776 4.67498 49.5756C4.71454 46.7736 6.93322 46.448 12.5679 46.5276C18.2027 46.6071 17.4308 44.254 20.2699 42.751C23.109 41.2479 21.7644 36.3577 17.5074 38.8254C16.599 39.3519 14.0071 41.7352 10.842 37.812C7.67694 33.8888 15.9307 36.45 19.1639 35.5483C22.3971 34.6467 20.8234 32.0584 16.0132 30.6065C11.203 29.1545 9.40058 28.5079 7.22476 25.7979C5.04895 23.088 6.49563 20.4157 9.48198 22.7423C12.4683 25.069 15.0731 25.9087 17.6514 28.6244C20.2297 31.34 21.0322 31.529 23.8899 28.7124C26.7476 25.8959 20.8161 24.591 18.3123 21.4624C14.4624 16.6516 12.9934 13.6034 15.7654 12.3739C18.9306 10.9699 20.1855 14.2339 21.7556 17.074C23.3258 19.9141 22.4586 21.0301 23.9713 22.9469C26.6332 26.3199 27.55 26.0849 29.7546 26.7548C31.9593 27.4247 30.5829 22.1609 27.7704 19.4394C25.5825 17.3223 26.1711 13.699 27.9704 13.203C30.1047 12.6146 31.9249 16.1882 32.1327 17.3472C32.547 19.6576 30.2198 21.1227 36.0122 24.2919C41.8046 27.4612 36.9738 14.405 34.5987 11.5535C32.2236 8.70209 31.3758 1.07869 35.1081 0.545836C38.633 0.0425944 41.9167 9.30552 42.0612 13.3332C42.2056 17.3608 39.9327 18.6737 44.4012 24.7258C48.8696 30.778 46.9128 17.7924 48.3932 10.9698C49.8735 4.14717 52.3916 4.96814 54.4807 7.81556C56.5698 10.663 52.1905 17.1122 51.4834 18.6879C49.3964 23.3385 50.371 24.1713 50.3214 27.684C50.2895 29.941 52.4419 30.2691 54.1901 27.0998C55.9383 23.9305 56.356 22.8422 57.5149 23.4205C59.5039 24.4129 59.4824 25.9419 58.3273 26.5194C55.7564 27.8048 55.8431 28.7201 57.3932 32.0424C58.9433 35.3647 61.7965 29.3365 62.8819 27.8613C63.9673 26.3861 65.0738 23.4207 68.351 25.0639C71.6282 26.7072 65.6103 30.6679 63.366 31.275C61.1217 31.8821 58.8533 34.1923 61.168 36.1413C63.4827 38.0904 63.3014 35.8521 66.7526 32.7068C70.2039 29.5616 73.3717 31.4163 73.9818 33.4477C74.5919 35.4791 73.8976 39.4085 68.1467 39.5403C62.3957 39.672 59.6056 41.2296 57.2594 41.5159C54.9132 41.8021 53.4903 44.5501 58.703 44.8367C63.8815 45.1213 63.3695 46.5865 63.145 47.2289L63.1406 47.2415C62.9187 47.8772 62.3594 49.7857 58.67 47.1784C54.9805 44.5712 53.6837 45.9369 53.4542 47.1048C53.2248 48.2727 53.5141 50.406 55.517 51.8184C57.5199 53.2307 60.154 55.1842 61.3892 58.1827C62.6244 61.1812 61.7008 66.2784 60.0007 66.0415C58.3006 65.8046 57.458 65.1539 56.9483 63.5497C56.4387 61.9455 57.0175 58.6533 55.4704 55.1181C53.9233 51.5828 51.5891 51.0177 49.9818 51.7402C48.3745 52.4628 50.6804 55.0504 50.6504 57.1794C50.6203 59.3083 49.8616 60.2557 49.8285 62.5975C49.7954 64.9392 51.1647 64.2564 50.6024 66.3778C50.0401 68.4991 47.5722 67.9003 48.2722 66.6553C50.0184 63.5495 49.8565 63.0062 48.3552 60.3244C47.7419 59.2288 47.349 57.2392 46.9548 54.9978C46.5606 52.7565 45.1119 50.3277 42.9785 50.617Z" fill="#EDD37F"/>
<path d="M16.4735 58.4235C17.9516 57.5715 18.6958 58.0726 18.4317 60.5318C18.3067 61.696 16.8354 62.0342 15.4287 62.0144C13.6705 61.9896 14.9953 59.2756 16.4735 58.4235Z" fill="#EDD37F"/>
<path d="M61.4509 21.5021C61.431 22.9134 59.7348 22.8402 58.6259 22.4167C57.3314 22.0405 57.9857 21.5281 57.5827 20.4904C57.0092 19.0142 58.3101 19.0326 59.6096 19.051C60.9092 19.0693 61.4712 20.0614 61.4509 21.5021Z" fill="#EDD37F"/>
<path d="M3.38542 36.3978C4.82406 37.2726 3.57892 38.2448 2.77651 38.6216C2.33094 38.6153 1.34165 38.4175 0.949055 37.6766C0.458315 36.7504 1.58712 35.3044 3.38542 36.3978Z" fill="#EDD37F"/>
<path d="M69.2445 50.7916C70.4494 50.8418 71.4119 47.7081 70.7974 46.6516C70.293 45.7843 67.3665 44.7742 66.36 46.5889C65.4679 48.1974 63.8453 49.9339 65.502 51.2337C66.5543 52.0594 66.8022 50.6898 69.2445 50.7916Z" fill="#EDD37F"/>
</svg>
